<svg width="240" height="64" viewBox="0 0 240 64" fill="none" xmlns="http://www.w3.org/2000/svg">
<g filter="url('#filter0_dd_1_7')">
<path d="M20.608 50.936C17.792 49.9973 15.6587 49.1227 14.208 48.312C12.7573 47.5013 12.032 46.84 12.032 46.328C12.032 45.8587 12.0747 45.368 12.16 44.856C12.2453 44.344 12.3307 43.5973 12.416 42.616C12.5013 41.6347 12.544 40.2267 12.544 38.392V26.104C12.544 24.056 12.6293 22.0507 12.8 20.088C12.9707 18.1253 13.2907 16.568 13.76 15.416H11.456L8.32 11.128L8.768 10.104H16.96L20.544 15.096C20.0747 16.4187 19.6907 18.04 19.392 19.96C19.136 21.88 19.008 24.0347 19.008 26.424V27.448C19.7333 27.2347 20.5013 27.064 21.312 26.936C22.1227 26.808 22.912 26.744 23.68 26.744C25.3867 26.744 27.0507 27.2133 28.672 28.152V26.104C28.672 24.056 28.7573 22.0507 28.928 20.088C29.0987 18.1253 29.4187 16.568 29.888 15.416H27.584L24.448 11.128L24.896 10.104H33.088L36.672 15.096C36.2027 16.4187 35.8187 18.04 35.52 19.96C35.264 21.88 35.136 24.0347 35.136 26.424V39.8C35.136 41.6347 35.072 43.1067 34.944 44.216C34.8587 45.2827 34.816 46.1147 34.816 46.712C34.816 47.4373 35.7333 48.2267 37.568 49.08L36.736 50.936C33.92 49.9973 31.7867 49.1227 30.336 48.312C28.8853 47.5013 28.16 46.84 28.16 46.328C28.16 45.8587 28.2027 45.368 28.288 44.856C28.3733 44.344 28.4587 43.5973 28.544 42.616C28.6293 41.6347 28.672 40.2267 28.672 38.392V31.928C28.5013 31.928 28.3093 31.928 28.096 31.928C26.6027 31.928 25.0453 32.0987 23.424 32.44C21.8453 32.7387 20.3733 33.3147 19.008 34.168V39.8C19.008 41.6347 18.944 43.1067 18.816 44.216C18.7307 45.2827 18.688 46.1147 18.688 46.712C18.688 47.4373 19.6053 48.2267 21.44 49.08L20.608 50.936ZM54.1665 50.68C53.1425 50.68 51.9052 50.424 50.4545 49.912C49.0038 49.4 47.5958 48.7173 46.2305 47.864C44.8652 47.0107 43.7132 46.0293 42.7745 44.92C41.8785 43.8107 41.4305 42.68 41.4305 41.528C41.4305 41.016 41.4945 39.5227 41.6225 37.048C41.7932 34.5733 41.8785 31.48 41.8785 27.768C41.8785 24.7813 42.7532 22.584 44.5025 21.176C46.2518 19.768 48.8758 19.064 52.3745 19.064C53.3985 19.064 54.5292 19.384 55.7665 20.024C57.0465 20.664 58.2625 21.496 59.4145 22.52C60.5665 23.544 61.5052 24.632 62.2305 25.784C62.9985 26.8933 63.3825 27.9387 63.3825 28.92C63.3825 30.5413 63.3398 32.2907 63.2545 34.168C63.2118 36.0453 63.1905 38.456 63.1905 41.4C63.1905 44.1307 62.4438 46.3707 60.9505 48.12C59.4572 49.8267 57.1958 50.68 54.1665 50.68ZM50.0705 45.24C52.4172 45.24 54.1238 44.7493 55.1905 43.768C56.2998 42.7867 56.8545 41.336 56.8545 39.416C56.8545 38.0507 56.8758 36.5147 56.9185 34.808C56.9612 33.0587 57.0038 31.4587 57.0465 30.008C57.0892 28.5147 57.1105 27.4693 57.1105 26.872C57.1105 26.1467 56.9825 25.6133 56.7265 25.272C56.4705 24.888 55.9585 24.696 55.1905 24.696C52.8865 24.696 51.1158 25.1013 49.8785 25.912C48.6838 26.68 48.0865 28.152 48.0865 30.328C48.0865 34.424 48.0438 37.5173 47.9585 39.608C47.8732 41.656 47.8305 43.0427 47.8305 43.768C47.8305 44.7493 48.5772 45.24 50.0705 45.24ZM77.91 51C75.1793 49.976 73.0673 49.0587 71.574 48.248C70.1233 47.3947 69.398 46.6267 69.398 45.944C69.398 45.3467 69.462 44.4293 69.59 43.192C69.7607 41.912 69.846 40.6747 69.846 39.48V31.288C69.846 30.4347 69.8673 29.368 69.91 28.088C69.9953 26.808 70.1447 25.72 70.358 24.824H67.99L64.662 20.408L65.11 19.384H71.126C71.2967 19.384 71.6593 19.6613 72.214 20.216C72.7687 20.7707 73.3233 21.4107 73.878 22.136C75.542 20.0027 77.6327 18.936 80.15 18.936H81.046C81.8993 18.936 82.8593 19.2987 83.926 20.024C84.9927 20.7067 85.9953 21.5173 86.934 22.456C87.83 21.176 88.8967 20.28 90.134 19.768C91.3713 19.2133 92.6513 18.936 93.974 18.936H95.062C95.9153 18.936 96.854 19.2773 97.878 19.96C98.9447 20.6427 99.9473 21.4747 100.886 22.456C101.867 23.4373 102.657 24.4187 103.254 25.4C103.894 26.3387 104.214 27.1067 104.214 27.704C104.214 28.7707 104.171 30.0933 104.086 31.672C104.001 33.2507 103.958 34.5307 103.958 35.512V40.184C103.958 41.72 103.894 43.0853 103.766 44.28C103.638 45.432 103.574 46.3067 103.574 46.904C103.574 47.3307 103.723 47.672 104.022 47.928C104.363 48.1413 105.174 48.5893 106.454 49.272L105.686 51C102.955 49.976 100.843 49.0587 99.35 48.248C97.8993 47.3947 97.174 46.6267 97.174 45.944C97.174 45.3467 97.238 44.4293 97.366 43.192C97.5367 41.912 97.622 40.6747 97.622 39.48V36.152C97.622 34.7867 97.6647 33.2293 97.75 31.48C97.8353 29.7307 97.878 28.1947 97.878 26.872C97.878 26.0187 97.7713 25.4427 97.558 25.144C97.3447 24.8453 96.8753 24.696 96.15 24.696C92.438 24.696 90.4327 26.424 90.134 29.88C90.134 30.8613 90.1127 31.864 90.07 32.888C90.07 33.912 90.07 34.7867 90.07 35.512V40.184C90.07 41.72 90.006 43.0853 89.878 44.28C89.75 45.432 89.686 46.3067 89.686 46.904C89.686 47.3307 89.8353 47.672 90.134 47.928C90.4753 48.1413 91.286 48.5893 92.566 49.272L91.798 51C89.0673 49.976 86.9553 49.0587 85.462 48.248C84.0113 47.3947 83.286 46.6267 83.286 45.944C83.286 45.3467 83.35 44.4293 83.478 43.192C83.6487 41.912 83.734 40.6747 83.734 39.48V36.152C83.734 34.7867 83.7553 33.2293 83.798 31.48C83.8833 29.7307 83.926 28.1947 83.926 26.872C83.926 26.0187 83.8193 25.4427 83.606 25.144C83.3927 24.8453 82.9233 24.696 82.198 24.696C80.1073 24.696 78.5713 25.3147 77.59 26.552C76.6513 27.7467 76.182 29.4107 76.182 31.544V40.184C76.182 41.72 76.118 43.0853 75.99 44.28C75.862 45.432 75.798 46.3067 75.798 46.904C75.798 47.3307 75.9473 47.672 76.246 47.928C76.5873 48.1413 77.398 48.5893 78.678 49.272L77.91 51ZM122.869 50.552C121.845 50.552 120.586 50.296 119.093 49.784C117.6 49.2293 116.106 48.5253 114.613 47.672C113.162 46.776 111.946 45.816 110.965 44.792C109.984 43.7253 109.493 42.68 109.493 41.656C109.493 40.632 109.557 38.8613 109.685 36.344C109.856 33.8267 109.941 30.8187 109.941 27.32C109.941 21.7733 112.97 19 119.029 19C119.968 19 121.056 19.2987 122.293 19.896C123.53 20.4507 124.725 21.1973 125.877 22.136C127.029 23.032 127.989 23.9707 128.757 24.952C129.525 25.9333 129.909 26.8507 129.909 27.704V32.952C129.909 36.408 127.989 38.136 124.149 38.136C122.954 38.136 121.589 38.072 120.053 37.944C118.517 37.7733 117.152 37.5813 115.957 37.368C115.914 38.776 115.872 40.056 115.829 41.208C115.829 42.3173 115.829 42.9573 115.829 43.128C115.829 43.8107 116 44.3013 116.341 44.6C116.682 44.8987 117.301 45.048 118.197 45.048C119.52 45.048 120.949 44.856 122.485 44.472C124.064 44.0453 125.472 43.4267 126.709 42.616H127.669L131.125 47.864C130.314 48.632 129.098 49.272 127.477 49.784C125.898 50.296 124.362 50.552 122.869 50.552ZM116.149 29.368C116.149 29.7093 116.128 30.2213 116.085 30.904C116.085 31.5867 116.085 32.3547 116.085 33.208C117.322 33.336 118.752 33.4 120.373 33.4C121.61 33.4 122.464 33.1013 122.933 32.504C123.445 31.864 123.701 30.904 123.701 29.624V26.168C123.701 25.6987 123.573 25.2933 123.317 24.952C123.061 24.6107 122.506 24.44 121.653 24.44C119.946 24.44 118.602 24.8027 117.621 25.528C116.64 26.2107 116.149 27.4907 116.149 29.368ZM149.657 50.488C148.462 50.488 147.054 50.2107 145.433 49.656C143.811 49.0587 142.211 48.312 140.633 47.416C139.097 46.52 137.817 45.5813 136.793 44.6C135.811 43.6187 135.321 42.7227 135.321 41.912C135.321 40.8027 135.385 39.3947 135.513 37.688C135.683 35.9387 135.769 34.104 135.769 32.184V21.112C135.769 16.9307 136.622 13.9653 138.329 12.216C140.078 10.424 142.489 9.528 145.561 9.528C146.841 9.528 148.142 9.86933 149.465 10.552C150.83 11.2347 152.089 12.088 153.241 13.112C154.435 14.136 155.395 15.2027 156.121 16.312C156.846 17.4213 157.209 18.4027 157.209 19.256C157.209 20.2373 157.145 21.3467 157.017 22.584C156.889 23.7787 156.675 24.888 156.377 25.912L150.041 24.44C150.211 23.416 150.361 22.328 150.489 21.176C150.659 20.024 150.745 18.8293 150.745 17.592C150.745 16.184 149.998 15.48 148.505 15.48C146.627 15.48 145.134 16.0133 144.025 17.08C142.915 18.104 142.361 19.8747 142.361 22.392V34.744C142.361 36.8773 142.297 38.584 142.169 39.864C142.083 41.144 142.041 42.04 142.041 42.552C142.041 44.0453 142.809 44.792 144.345 44.792C146.35 44.792 147.993 44.3227 149.273 43.384C150.553 42.4453 151.662 40.952 152.601 38.904H153.369L158.681 41.976C157.785 44.7067 156.547 46.8187 154.969 48.312C153.433 49.7627 151.662 50.488 149.657 50.488ZM170.711 51C167.98 49.976 165.868 49.0587 164.375 48.248C162.924 47.3947 162.199 46.6267 162.199 45.944C162.199 45.3467 162.263 44.4293 162.391 43.192C162.561 41.912 162.647 40.6747 162.647 39.48V22.328C162.647 19.768 162.732 17.4213 162.903 15.288C163.116 13.112 163.372 11.384 163.671 10.104H160.919L157.398 5.944L157.846 4.92H166.167L169.943 9.784C169.644 11.3627 169.409 13.1333 169.239 15.096C169.068 17.016 168.983 19.0213 168.983 21.112C169.665 20.4293 170.497 19.896 171.479 19.512C172.503 19.128 173.569 18.936 174.679 18.936C175.617 18.936 176.62 19.2773 177.687 19.96C178.753 20.6427 179.756 21.4747 180.695 22.456C181.676 23.4373 182.465 24.4187 183.063 25.4C183.703 26.3387 184.023 27.1067 184.023 27.704C184.023 28.7707 183.98 30.0933 183.895 31.672C183.809 33.2507 183.767 34.5307 183.767 35.512V40.184C183.767 41.72 183.703 43.0853 183.575 44.28C183.447 45.432 183.383 46.3067 183.383 46.904C183.383 47.3307 183.532 47.672 183.831 47.928C184.172 48.1413 184.983 48.5893 186.263 49.272L185.495 51C182.764 49.976 180.652 49.0587 179.159 48.248C177.708 47.3947 176.983 46.6267 176.983 45.944C176.983 45.3467 177.047 44.4293 177.175 43.192C177.345 41.912 177.431 40.6747 177.431 39.48V36.152C177.431 34.7867 177.473 33.2293 177.559 31.48C177.644 29.7307 177.687 28.1947 177.687 26.872C177.687 26.0187 177.58 25.4427 177.367 25.144C177.153 24.8453 176.684 24.696 175.958 24.696C173.569 24.696 171.799 25.3147 170.647 26.552C169.537 27.7467 168.983 29.4107 168.983 31.544V40.184C168.983 41.72 168.919 43.0853 168.791 44.28C168.663 45.432 168.599 46.3067 168.599 46.904C168.599 47.3307 168.748 47.672 169.047 47.928C169.388 48.1413 170.199 48.5893 171.479 49.272L170.711 51ZM203.057 50.552C202.033 50.552 200.774 50.296 199.281 49.784C197.787 49.2293 196.294 48.5253 194.801 47.672C193.35 46.776 192.134 45.816 191.153 44.792C190.171 43.7253 189.681 42.68 189.681 41.656C189.681 40.632 189.745 38.8613 189.873 36.344C190.043 33.8267 190.129 30.8187 190.129 27.32C190.129 21.7733 193.158 19 199.217 19C200.155 19 201.243 19.2987 202.481 19.896C203.718 20.4507 204.913 21.1973 206.065 22.136C207.217 23.032 208.177 23.9707 208.945 24.952C209.713 25.9333 210.097 26.8507 210.097 27.704V32.952C210.097 36.408 208.177 38.136 204.337 38.136C203.142 38.136 201.777 38.072 200.241 37.944C198.705 37.7733 197.339 37.5813 196.145 37.368C196.102 38.776 196.059 40.056 196.017 41.208C196.017 42.3173 196.017 42.9573 196.017 43.128C196.017 43.8107 196.187 44.3013 196.529 44.6C196.87 44.8987 197.489 45.048 198.385 45.048C199.707 45.048 201.137 44.856 202.673 44.472C204.251 44.0453 205.659 43.4267 206.897 42.616H207.857L211.313 47.864C210.502 48.632 209.286 49.272 207.665 49.784C206.086 50.296 204.55 50.552 203.057 50.552ZM196.337 29.368C196.337 29.7093 196.315 30.2213 196.273 30.904C196.273 31.5867 196.273 32.3547 196.273 33.208C197.51 33.336 198.939 33.4 200.561 33.4C201.798 33.4 202.651 33.1013 203.121 32.504C203.633 31.864 203.889 30.904 203.889 29.624V26.168C203.889 25.6987 203.761 25.2933 203.505 24.952C203.249 24.6107 202.694 24.44 201.841 24.44C200.134 24.44 198.79 24.8027 197.809 25.528C196.827 26.2107 196.337 27.4907 196.337 29.368ZM224.98 51.192C222.42 50.296 220.351 49.4 218.772 48.504C217.193 47.608 216.404 46.8187 216.404 46.136C216.404 45.5387 216.489 44.664 216.66 43.512C216.831 42.36 216.916 41.1867 216.916 39.992V31.864C216.916 30.2427 216.959 28.8987 217.044 27.832C217.129 26.7227 217.3 25.72 217.556 24.824H214.676L211.028 20.472L211.476 19.384H218.772C218.132 18.6587 217.513 17.7413 216.916 16.632C216.361 15.48 216.084 14.2 216.084 12.792C216.084 10.7013 216.767 8.97333 218.132 7.608C219.497 6.24266 221.631 5.56 224.532 5.56C226.111 5.56 227.476 5.816 228.628 6.328L231.636 11.448L230.932 12.28C230.505 12.152 229.929 12.0453 229.204 11.96C228.521 11.832 227.668 11.768 226.644 11.768C224.98 11.768 223.679 12.088 222.74 12.728C221.801 13.368 221.332 14.3707 221.332 15.736C221.332 17.1867 221.801 18.4027 222.74 19.384H228.5L231.892 23.864L231.316 24.824H223.956C223.657 25.6347 223.465 26.68 223.38 27.96C223.295 29.1973 223.252 30.712 223.252 32.504V40.696C223.252 42.232 223.188 43.5333 223.06 44.6C222.932 45.6667 222.868 46.4987 222.868 47.096C222.868 47.5227 223.039 47.8853 223.38 48.184C223.721 48.44 224.553 48.8667 225.876 49.464L224.98 51.192Z" fill="black"></path>
</g>
<defs>
<filter id="filter0_dd_1_7" x="0.320007" y="0.919983" width="239.572" height="62.272" filterUnits="userSpaceOnUse" color-interpolation-filters="sRGB">
<feFlood flood-opacity="0" result="BackgroundImageFix"></feFlood>
<feColorMatrix in="SourceAlpha" type="matrix" values="0 0 0 0 0 0 0 0 0 0 0 0 0 0 0 0 0 0 127 0" result="hardAlpha"></feColorMatrix>
<feOffset dy="1"></feOffset>
<feGaussianBlur stdDeviation="1.5"></feGaussianBlur>
<feColorMatrix type="matrix" values="0 0 0 0 0 0 0 0 0 0 0 0 0 0 0 0 0 0 0.3 0"></feColorMatrix>
<feBlend mode="normal" in2="BackgroundImageFix" result="effect1_dropShadow_1_7"></feBlend>
<feColorMatrix in="SourceAlpha" type="matrix" values="0 0 0 0 0 0 0 0 0 0 0 0 0 0 0 0 0 0 127 0" result="hardAlpha"></feColorMatrix>
<feOffset dy="4"></feOffset>
<feGaussianBlur stdDeviation="4"></feGaussianBlur>
<feColorMatrix type="matrix" values="0 0 0 0 0 0 0 0 0 0 0 0 0 0 0 0 0 0 0.15 0"></feColorMatrix>
<feBlend mode="normal" in2="effect1_dropShadow_1_7" result="effect2_dropShadow_1_7"></feBlend>
<feBlend mode="normal" in="SourceGraphic" in2="effect2_dropShadow_1_7" result="shape"></feBlend>
</filter>
</defs>
</svg>
