<svg width="240" height="64" fill="none" xmlns="http://www.w3.org/2000/svg"><g filter="url('#filter0_dd_1_7')"><path d="M20.608 50.936c-2.816-.939-4.95-1.813-6.4-2.624-1.45-.81-2.176-1.472-2.176-1.984 0-.47.043-.96.128-1.472s.17-1.259.256-2.24c.085-.981.128-2.39.128-4.224V26.104c0-2.048.085-4.053.256-6.016.17-1.963.49-3.52.96-4.672h-2.304L8.32 11.128l.448-1.024h8.192l3.584 4.992c-.47 1.323-.853 2.944-1.152 4.864-.256 1.92-.384 4.075-.384 6.464v1.024a18.253 18.253 0 0 1 2.304-.512c.81-.128 1.6-.192 2.368-.192 1.707 0 3.37.47 4.992 1.408v-2.048c0-2.048.085-4.053.256-6.016.17-1.963.49-3.52.96-4.672h-2.304l-3.136-4.288.448-1.024h8.192l3.584 4.992c-.47 1.323-.853 2.944-1.152 4.864-.256 1.92-.384 4.075-.384 6.464V39.8c0 1.835-.064 3.307-.192 4.416-.085 1.067-.128 1.899-.128 2.496 0 .725.917 1.515 2.752 2.368l-.832 1.856c-2.816-.939-4.95-1.813-6.4-2.624-1.45-.81-2.176-1.472-2.176-1.984 0-.47.043-.96.128-1.472s.17-1.259.256-2.24c.085-.981.128-2.39.128-4.224v-6.464h-.576c-1.493 0-3.05.17-4.672.512-1.579.299-3.05.875-4.416 1.728V39.8c0 1.835-.064 3.307-.192 4.416-.085 1.067-.128 1.899-.128 2.496 0 .725.917 1.515 2.752 2.368l-.832 1.856Zm33.558-.256c-1.023 0-2.26-.256-3.711-.768a21.392 21.392 0 0 1-4.224-2.048c-1.366-.853-2.518-1.835-3.456-2.944-.896-1.11-1.344-2.24-1.344-3.392 0-.512.064-2.005.192-4.48.17-2.475.256-5.568.256-9.28 0-2.987.874-5.184 2.623-6.592 1.75-1.408 4.374-2.112 7.872-2.112 1.024 0 2.155.32 3.392.96a16.8 16.8 0 0 1 3.648 2.496c1.152 1.024 2.091 2.112 2.816 3.264.769 1.11 1.153 2.155 1.153 3.136 0 1.621-.043 3.37-.129 5.248a330.33 330.33 0 0 0-.063 7.232c0 2.73-.747 4.97-2.24 6.72-1.494 1.707-3.755 2.56-6.785 2.56Zm-4.095-5.44c2.346 0 4.053-.49 5.12-1.472 1.109-.981 1.663-2.432 1.663-4.352 0-1.365.022-2.901.065-4.608.042-1.75.085-3.35.128-4.8.042-1.493.064-2.539.064-3.136 0-.725-.128-1.259-.384-1.6-.256-.384-.768-.576-1.536-.576-2.305 0-4.075.405-5.313 1.216-1.194.768-1.791 2.24-1.791 4.416 0 4.096-.043 7.19-.129 9.28-.085 2.048-.127 3.435-.127 4.16 0 .981.746 1.472 2.24 1.472ZM77.91 51c-2.73-1.024-4.843-1.941-6.336-2.752-1.45-.853-2.176-1.621-2.176-2.304 0-.597.064-1.515.192-2.752.17-1.28.256-2.517.256-3.712v-8.192c0-.853.021-1.92.064-3.2.085-1.28.235-2.368.448-3.264H67.99l-3.328-4.416.448-1.024h6.016c.17 0 .533.277 1.088.832.555.555 1.11 1.195 1.664 1.92 1.664-2.133 3.755-3.2 6.272-3.2h.896c.853 0 1.813.363 2.88 1.088a17.891 17.891 0 0 1 3.008 2.432c.896-1.28 1.963-2.176 3.2-2.688a9.29 9.29 0 0 1 3.84-.832h1.088c.853 0 1.792.341 2.816 1.024a16.4 16.4 0 0 1 3.008 2.496c.981.981 1.771 1.963 2.368 2.944.64.939.96 1.707.96 2.304 0 1.067-.043 2.39-.128 3.968a74.619 74.619 0 0 0-.128 3.84v4.672c0 1.536-.064 2.901-.192 4.096-.128 1.152-.192 2.027-.192 2.624 0 .427.149.768.448 1.024.341.213 1.152.661 2.432 1.344L105.686 51c-2.731-1.024-4.843-1.941-6.336-2.752-1.45-.853-2.176-1.621-2.176-2.304 0-.597.064-1.515.192-2.752.17-1.28.256-2.517.256-3.712v-3.328c0-1.365.043-2.923.128-4.672a96.02 96.02 0 0 0 .128-4.608c0-.853-.107-1.43-.32-1.728-.213-.299-.683-.448-1.408-.448-3.712 0-5.717 1.728-6.016 5.184 0 .981-.021 1.984-.064 3.008V40.184c0 1.536-.064 2.901-.192 4.096-.128 1.152-.192 2.027-.192 2.624 0 .427.15.768.448 1.024.341.213 1.152.661 2.432 1.344L91.798 51c-2.73-1.024-4.843-1.941-6.336-2.752-1.45-.853-2.176-1.621-2.176-2.304 0-.597.064-1.515.192-2.752.17-1.28.256-2.517.256-3.712v-3.328c0-1.365.021-2.923.064-4.672a96.02 96.02 0 0 0 .128-4.608c0-.853-.107-1.43-.32-1.728-.213-.299-.683-.448-1.408-.448-2.09 0-3.627.619-4.608 1.856-.939 1.195-1.408 2.859-1.408 4.992v8.64c0 1.536-.064 2.901-.192 4.096-.128 1.152-.192 2.027-.192 2.624 0 .427.15.768.448 1.024.341.213 1.152.661 2.432 1.344L77.91 51Zm44.959-.448c-1.024 0-2.283-.256-3.776-.768a30.314 30.314 0 0 1-4.48-2.112c-1.451-.896-2.667-1.856-3.648-2.88-.981-1.067-1.472-2.112-1.472-3.136s.064-2.795.192-5.312c.171-2.517.256-5.525.256-9.024 0-5.547 3.029-8.32 9.088-8.32.939 0 2.027.299 3.264.896 1.237.555 2.432 1.301 3.584 2.24 1.152.896 2.112 1.835 2.88 2.816.768.981 1.152 1.899 1.152 2.752v5.248c0 3.456-1.92 5.184-5.76 5.184a49.91 49.91 0 0 1-4.096-.192 63.386 63.386 0 0 1-4.096-.576 575.523 575.523 0 0 1-.128 3.84v1.92c0 .683.171 1.173.512 1.472.341.299.96.448 1.856.448 1.323 0 2.752-.192 4.288-.576 1.579-.427 2.987-1.045 4.224-1.856h.96l3.456 5.248c-.811.768-2.027 1.408-3.648 1.92-1.579.512-3.115.768-4.608.768Zm-6.72-21.184c0 .341-.021.853-.064 1.536v2.304c1.237.128 2.667.192 4.288.192 1.237 0 2.091-.299 2.56-.896.512-.64.768-1.6.768-2.88v-3.456c0-.47-.128-.875-.384-1.216-.256-.341-.811-.512-1.664-.512-1.707 0-3.051.363-4.032 1.088-.981.683-1.472 1.963-1.472 3.84Zm33.508 21.12c-1.195 0-2.603-.277-4.224-.832a32.38 32.38 0 0 1-4.8-2.24c-1.536-.896-2.816-1.835-3.84-2.816-.982-.981-1.472-1.877-1.472-2.688 0-1.11.064-2.517.192-4.224.17-1.75.256-3.584.256-5.504V21.112c0-4.181.853-7.147 2.56-8.896 1.749-1.792 4.16-2.688 7.232-2.688 1.28 0 2.581.341 3.904 1.024a17.331 17.331 0 0 1 3.776 2.56c1.194 1.024 2.154 2.09 2.88 3.2.725 1.11 1.088 2.09 1.088 2.944 0 .981-.064 2.09-.192 3.328a19.241 19.241 0 0 1-.64 3.328l-6.336-1.472c.17-1.024.32-2.112.448-3.264.17-1.152.256-2.347.256-3.584 0-1.408-.747-2.112-2.24-2.112-1.878 0-3.371.533-4.48 1.6-1.11 1.024-1.664 2.795-1.664 5.312v12.352c0 2.133-.064 3.84-.192 5.12-.086 1.28-.128 2.176-.128 2.688 0 1.493.768 2.24 2.304 2.24 2.005 0 3.648-.47 4.928-1.408 1.28-.939 2.389-2.432 3.328-4.48h.768l5.312 3.072c-.896 2.73-2.134 4.843-3.712 6.336-1.536 1.45-3.307 2.176-5.312 2.176Zm21.054.512c-2.731-1.024-4.843-1.941-6.336-2.752-1.451-.853-2.176-1.621-2.176-2.304 0-.597.064-1.515.192-2.752.17-1.28.256-2.517.256-3.712V22.328c0-2.56.085-4.907.256-7.04.213-2.176.469-3.904.768-5.184h-2.752l-3.521-4.16.448-1.024h8.321l3.776 4.864c-.299 1.579-.534 3.35-.704 5.312a67.865 67.865 0 0 0-.256 6.016c.682-.683 1.514-1.216 2.496-1.6a9.037 9.037 0 0 1 3.2-.576c.938 0 1.941.341 3.008 1.024a16.434 16.434 0 0 1 3.008 2.496c.981.981 1.77 1.963 2.368 2.944.64.939.96 1.707.96 2.304 0 1.067-.043 2.39-.128 3.968a73.49 73.49 0 0 0-.128 3.84v4.672c0 1.536-.064 2.901-.192 4.096-.128 1.152-.192 2.027-.192 2.624 0 .427.149.768.448 1.024.341.213 1.152.661 2.432 1.344L185.495 51c-2.731-1.024-4.843-1.941-6.336-2.752-1.451-.853-2.176-1.621-2.176-2.304 0-.597.064-1.515.192-2.752.17-1.28.256-2.517.256-3.712v-3.328c0-1.365.042-2.923.128-4.672.085-1.75.128-3.285.128-4.608 0-.853-.107-1.43-.32-1.728-.214-.299-.683-.448-1.409-.448-2.389 0-4.159.619-5.311 1.856-1.11 1.195-1.664 2.859-1.664 4.992v8.64c0 1.536-.064 2.901-.192 4.096-.128 1.152-.192 2.027-.192 2.624 0 .427.149.768.448 1.024.341.213 1.152.661 2.432 1.344L170.711 51Zm32.346-.448c-1.024 0-2.283-.256-3.776-.768a30.267 30.267 0 0 1-4.48-2.112c-1.451-.896-2.667-1.856-3.648-2.88-.982-1.067-1.472-2.112-1.472-3.136s.064-2.795.192-5.312c.17-2.517.256-5.525.256-9.024 0-5.547 3.029-8.32 9.088-8.32.938 0 2.026.299 3.264.896 1.237.555 2.432 1.301 3.584 2.24 1.152.896 2.112 1.835 2.88 2.816.768.981 1.152 1.899 1.152 2.752v5.248c0 3.456-1.92 5.184-5.76 5.184a49.91 49.91 0 0 1-4.096-.192 63.286 63.286 0 0 1-4.096-.576 651.919 651.919 0 0 1-.128 3.84v1.92c0 .683.17 1.173.512 1.472.341.299.96.448 1.856.448 1.322 0 2.752-.192 4.288-.576 1.578-.427 2.986-1.045 4.224-1.856h.96l3.456 5.248c-.811.768-2.027 1.408-3.648 1.92-1.579.512-3.115.768-4.608.768Zm-6.72-21.184c0 .341-.022.853-.064 1.536v2.304c1.237.128 2.666.192 4.288.192 1.237 0 2.09-.299 2.56-.896.512-.64.768-1.6.768-2.88v-3.456c0-.47-.128-.875-.384-1.216-.256-.341-.811-.512-1.664-.512-1.707 0-3.051.363-4.032 1.088-.982.683-1.472 1.963-1.472 3.84Zm28.643 21.824c-2.56-.896-4.629-1.792-6.208-2.688-1.579-.896-2.368-1.685-2.368-2.368 0-.597.085-1.472.256-2.624.171-1.152.256-2.325.256-3.52v-8.128c0-1.621.043-2.965.128-4.032.085-1.11.256-2.112.512-3.008h-2.88l-3.648-4.352.448-1.088h7.296c-.64-.725-1.259-1.643-1.856-2.752-.555-1.152-.832-2.432-.832-3.84 0-2.09.683-3.819 2.048-5.184 1.365-1.365 3.499-2.048 6.4-2.048 1.579 0 2.944.256 4.096.768l3.008 5.12-.704.832c-.427-.128-1.003-.235-1.728-.32-.683-.128-1.536-.192-2.56-.192-1.664 0-2.965.32-3.904.96-.939.64-1.408 1.643-1.408 3.008 0 1.45.469 2.667 1.408 3.648h5.76l3.392 4.48-.576.96h-7.36c-.299.81-.491 1.856-.576 3.136-.085 1.237-.128 2.752-.128 4.544v8.192c0 1.536-.064 2.837-.192 3.904-.128 1.067-.192 1.899-.192 2.496 0 .427.171.79.512 1.088.341.256 1.173.683 2.496 1.28l-.896 1.728Z" fill="#000"/></g><defs><filter id="filter0_dd_1_7" x=".32" y=".92" width="239.572" height="62.272" filterUnits="userSpaceOnUse" color-interpolation-filters="sRGB"><feFlood flood-opacity="0" result="BackgroundImageFix"/><feColorMatrix in="SourceAlpha" values="0 0 0 0 0 0 0 0 0 0 0 0 0 0 0 0 0 0 127 0" result="hardAlpha"/><feOffset dy="1"/><feGaussianBlur stdDeviation="1.5"/><feColorMatrix values="0 0 0 0 0 0 0 0 0 0 0 0 0 0 0 0 0 0 0.3 0"/><feBlend in2="BackgroundImageFix" result="effect1_dropShadow_1_7"/><feColorMatrix in="SourceAlpha" values="0 0 0 0 0 0 0 0 0 0 0 0 0 0 0 0 0 0 127 0" result="hardAlpha"/><feOffset dy="4"/><feGaussianBlur stdDeviation="4"/><feColorMatrix values="0 0 0 0 0 0 0 0 0 0 0 0 0 0 0 0 0 0 0.15 0"/><feBlend in2="effect1_dropShadow_1_7" result="effect2_dropShadow_1_7"/><feBlend in="SourceGraphic" in2="effect2_dropShadow_1_7" result="shape"/></filter></defs></svg>